<svg id="Layer_1" data-name="Layer 1" xmlns="http://www.w3.org/2000/svg" xmlns:xlink="http://www.w3.org/1999/xlink" viewBox="0 0 102 102"><defs><style>.cls-1{fill:#fff;}.cls-2{fill:url(#Degradado_sin_nombre_50);}</style><linearGradient id="Degradado_sin_nombre_50" x1="51" y1="1.58" x2="51" y2="97.43" gradientUnits="userSpaceOnUse"><stop offset="0" stop-color="#00f5ff"/><stop offset="0.88" stop-color="#00e87d"/><stop offset="1" stop-color="#00e66a"/></linearGradient></defs><path class="cls-1" d="M34.64,55.37C35.86,57.75,37,60,38.18,62.15c.14.27.29.53.44.79s.27.52.42.78c.27.51.59,1,.85,1.51s.58,1,.86,1.44.56.92.86,1.36l-.09-1.42c0-.47-.1-.94-.15-1.42l-.08-.71-.12-.7c-.08-.47-.15-.94-.24-1.41a42.66,42.66,0,0,0-1.54-5.52A43.29,43.29,0,0,0,37,51.59c-.22-.43-.47-.84-.71-1.26L36,49.71l-.39-.61c-.26-.4-.51-.82-.79-1.21l-.85-1.18a39.39,39.39,0,0,1,8.84,21.6,16.72,16.72,0,0,0,1.29-7.56,22.62,22.62,0,0,0-2.5-9.12l-.15-.3L41.25,51l-.34-.58c-.23-.39-.45-.77-.7-1.13s-.51-.71-.76-1.06l-.39-.51c-.13-.17-.28-.32-.41-.48a20.86,20.86,0,0,0-1.71-1.79l-.88-.79c-.3-.25-.62-.48-.92-.7a15.39,15.39,0,0,0-7.22-3,67.7,67.7,0,0,0,2.94,6.84c.3.59.58,1.21.89,1.82l.24.46.22.47.47.94c.17.3.31.63.47,1s.33.63.5.95.32.66.49,1l.26.49Z"/><path class="cls-1" d="M31.85,65A24.84,24.84,0,0,0,39,66.39,29.28,29.28,0,0,0,28.8,61.74,29.79,29.79,0,0,1,39.46,66a8.79,8.79,0,0,0-2.31-3,11.86,11.86,0,0,0-3.94-2.22,11.67,11.67,0,0,0-4.76-.6,8.29,8.29,0,0,0-3.69,1.18,16.94,16.94,0,0,0,3.18,2A30.62,30.62,0,0,0,31.85,65Z"/><path class="cls-1" d="M29.39,57.34a17.5,17.5,0,0,0,4.83,1.81,21,21,0,0,0-6.61-4.43,21.21,21.21,0,0,1,7,4.18,6.41,6.41,0,0,0-1.28-2.36,8.8,8.8,0,0,0-2.52-2,8.56,8.56,0,0,0-3.27-1,6,6,0,0,0-2.73.41,12.49,12.49,0,0,0,2,1.77A23.07,23.07,0,0,0,29.39,57.34Z"/><path class="cls-1" d="M47.1,48.89a17.56,17.56,0,0,1-2.39,4.58,21,21,0,0,1,2-7.7,21.16,21.16,0,0,0-2.42,7.78,6.23,6.23,0,0,1-.62-2.61,8.41,8.41,0,0,1,.53-3.17A8.16,8.16,0,0,1,46,44.87a5.79,5.79,0,0,1,2.3-1.52A12.14,12.14,0,0,1,47.94,46,22.07,22.07,0,0,1,47.1,48.89Z"/><path class="cls-1" d="M40,45.25a11.42,11.42,0,0,0,1.33,3.11,13.76,13.76,0,0,0-.9-5.14,13.92,13.92,0,0,1,1.2,5.21,4.11,4.11,0,0,0,.53-1.67A5.55,5.55,0,0,0,42,44.65a5.46,5.46,0,0,0-1-2,3.89,3.89,0,0,0-1.43-1.11,8.77,8.77,0,0,0,.07,1.75A13.48,13.48,0,0,0,40,45.25Z"/><path class="cls-1" d="M43.21,47c0-7.12-.09-8-.14-9.51-.09-1.89-.64-2.49-1.74-2.72a15.56,15.56,0,0,0-1.84-.18c-.56,0-.83-.23-.83-.51s.32-.41,1-.41c2,0,6.39.14,7,.14.87,0,5.28-.14,7.4-.14,4.32,0,7.36.41,9.38,1.56a7.81,7.81,0,0,1,4.18,7c0,3.86-2.2,6.8-6.16,9.24,2.81,4,6.16,9,9,12.19,2.44,2.71,3.54,3.49,4.83,3.67a10.13,10.13,0,0,0,1.15.14c.5,0,.78.19.78.46,0,.42-.46.46-.92.46H72.18c-4.74,0-6.76-.46-8.37-1.52C62.34,66,60.87,64,59.08,61.12c-2.12-3.5-3.18-5.38-4-6.63a.73.73,0,0,0-.55-.27h-3c-.23,0-.37.09-.37.37v2.34a69.22,69.22,0,0,0,.23,7.73c.09,1.19.41,2.2,1.79,2.53a11.62,11.62,0,0,0,2.07.27c.74.05.83.23.83.51s-.32.41-1,.41c-3.08,0-8.09-.14-8.41-.14-.55,0-5,.14-6.58.14-.69,0-.92-.14-.92-.46s.33-.46.83-.46,1.06-.09,1.57-.18c.92-.23,1.28-1.06,1.42-2.62.19-1.93.23-5.15.23-9.61ZM51.12,50a.67.67,0,0,0,.41.69,8.32,8.32,0,0,0,3.54.6,4.6,4.6,0,0,0,2.9-.73c1-.74,1.79-2.72,1.79-5.8,0-6.53-4.13-8.23-6.52-8.23a6.12,6.12,0,0,0-1.84.19c-.19.09-.28.13-.28.5Z"/><path class="cls-2" d="M98.67,55l-.79-14.54a1.81,1.81,0,0,0-.43-3.56h-.09l-3.25-6.76a1.17,1.17,0,0,0,.47-.93A1.18,1.18,0,0,0,93.4,28a1.33,1.33,0,0,0-.45.08l-4.72-7.25a1.8,1.8,0,1,0-2.36-2.71L79,12.27a1.13,1.13,0,0,0,.17-.6,1.18,1.18,0,0,0-2.13-.7L66.67,5.72A1.18,1.18,0,1,0,64.44,5L52.31,3.33a2.58,2.58,0,0,0-5.15-.24L37.48,4.94a1.18,1.18,0,0,0-2.33.28,1.27,1.27,0,0,0,.12.51L24.88,11a1.2,1.2,0,0,0-.94-.47,1.18,1.18,0,0,0-1.18,1.18,1.17,1.17,0,0,0,.17.61l-6.87,5.84a1.8,1.8,0,1,0-2.35,2.72L9,28.09A1.13,1.13,0,0,0,8.54,28a1.18,1.18,0,0,0-1.18,1.18,1.16,1.16,0,0,0,.46.93L4.57,36.87H4.48a1.8,1.8,0,0,0-.4,3.56l-.8,14.29a2.58,2.58,0,0,0,.31,5.14,2.21,2.21,0,0,0,.37,0L8.2,73.17a1.78,1.78,0,0,0-.31,1A1.8,1.8,0,0,0,9.69,76h.05l5.18,7a1.36,1.36,0,0,0,0,.2,1.18,1.18,0,0,0,1.18,1.18h.08L28,93.06a1.54,1.54,0,0,0-.06.43,1.79,1.79,0,0,0,3.16,1.18l10.83,3.51a2.54,2.54,0,0,0,0,.49A2.58,2.58,0,0,0,47,99l8.64,0a1.8,1.8,0,0,0,3.56-.41c0-.06,0-.11,0-.17l11.63-3.75a1.76,1.76,0,0,0,1.34.62A1.81,1.81,0,0,0,74,93.49a2.12,2.12,0,0,0-.06-.44l11.61-8.51a1.65,1.65,0,0,0,.32,0,1.41,1.41,0,0,0,1.4-1.41,1.32,1.32,0,0,0-.08-.44l5-6.73h0a1.81,1.81,0,0,0,1.47-2.85l4.17-13.1a2.24,2.24,0,0,0,.52.06A2.58,2.58,0,0,0,98.67,55Zm-5.4-24.61h.07l3,6.92a1.9,1.9,0,0,0-.41.48l-5.65-1.49C91.51,33.82,92.67,31.52,93.27,30.35ZM90.45,74.26l-5.77.68-1.33-6.85,7.22,5.45a1.75,1.75,0,0,0-.13.65S90.45,74.24,90.45,74.26ZM73.32,76.43a1.78,1.78,0,0,0,.19.8L65.39,82.4a1.18,1.18,0,0,0-2.12.71s0,.07,0,.11l-11.49,2a1.8,1.8,0,0,0-3.56,0l-9.58-2a.59.59,0,0,0,0-.14,1.18,1.18,0,0,0-1.18-1.18,1.21,1.21,0,0,0-1,.47l-8.11-5.17a1.78,1.78,0,0,0,.19-.8,1.8,1.8,0,0,0-2.68-1.57l-5.38-7.25a1.32,1.32,0,0,0,.28-.81,1.36,1.36,0,0,0-1.36-1.36h0L16.6,56a1.35,1.35,0,0,0,.73-1.19,1.36,1.36,0,0,0-1-1.3l.4-7.28a1.8,1.8,0,0,0,.6-3.27l2.24-7.37a1.17,1.17,0,0,0,.93-1.15,1,1,0,0,0-.09-.44l7.7-9.11a2,2,0,0,0,.6.11,1.81,1.81,0,0,0,1.81-1.81,2.66,2.66,0,0,0,0-.28L45.09,16.7a1.37,1.37,0,0,0,1.09.53,1.4,1.4,0,0,0,1.3-.89h7a1.4,1.4,0,0,0,2.4.36L71.9,23.09v0a1.18,1.18,0,0,0,1.19,1.18l.22,0,7.51,8.88a1.8,1.8,0,0,0,1.31,3,1.75,1.75,0,0,0,.4,0l2.26,7.42a1.18,1.18,0,0,0,.37,2.09l.43,7.84A1.35,1.35,0,0,0,85.34,56l-2.88,9.46h0A1.35,1.35,0,0,0,81.1,66.8a1.32,1.32,0,0,0,.27.81L76,74.86a1.86,1.86,0,0,0-.88-.23A1.79,1.79,0,0,0,73.32,76.43Zm1.2,1.7L73.63,83H65.84L74,77.83A2,2,0,0,0,74.52,78.13Zm-10.72,6-2.58,5.31-9.51-3.34a.19.19,0,0,1,0-.07l11.88-2.06ZM48.28,86l-7.75,3-2.4-4.94.19-.15ZM36.05,83H28.31l-.89-4.87a1.84,1.84,0,0,0,.54-.32ZM11.37,73.54l7.21-5.45-1.32,6.85-5.77-.68s0,0,0-.07A1.75,1.75,0,0,0,11.37,73.54ZM6.27,38.49,12,37c1.15,2.26,2.32,4.55,3.15,6.13a1.77,1.77,0,0,0-.31,2.37l-2.91,3-6-8.69a1.78,1.78,0,0,0,.36-1.06A1.1,1.1,0,0,0,6.27,38.49Zm9.59,4.24c-.8-1.54-1.94-3.75-3.06-6l5.73-1.49a1.69,1.69,0,0,0,.31.21l-2.21,7.18-.26,0A1.7,1.7,0,0,0,15.86,42.73ZM16,46.22l-.4,7.27-.09,0-3.09-4.46,3-3.07A1.89,1.89,0,0,0,16,46.22ZM14.89,54a1.37,1.37,0,0,0-.28.82.11.11,0,0,0,0,.05L6.09,56.63a2.8,2.8,0,0,0-.35-.81l6.12-6.2ZM6.16,57.39l8.7-1.82a1.62,1.62,0,0,0,.32.32l-2.26,6.83L5.86,58.48A2.64,2.64,0,0,0,6.16,57.39Zm9.71-1.16,2.87,9.44a1.22,1.22,0,0,0-.35.33l-4.8-2.88Zm3.48,11.91.13,0a1.34,1.34,0,0,0,.49-.1l5.39,7.31a1.74,1.74,0,0,0-.25.49L18,75ZM17.72,27.05l9.65-2.71.1.12L19.92,33.4a1.11,1.11,0,0,0-.27-.12Zm12.11-5.3,3.29-7.83,11.41,2.19-14.3,6.06A2,2,0,0,0,29.83,21.75ZM57.4,16.11l11.42-2.19,3.49,8.3a1.06,1.06,0,0,0-.15.15Zm16.91,8.16,9.9,2.78-1.72,5.57a2.21,2.21,0,0,0-.37,0,1.87,1.87,0,0,0-.71.14Zm11.43,19.1a.88.88,0,0,0-.24,0l-2.28-7.53a1.93,1.93,0,0,0,.43-.47l5.49,1.43C87.84,39.31,86.54,41.86,85.74,43.37Zm.31,2.17,3.47,3.52-3.09,4.46-.08,0-.43-7.88ZM82,68.07a1.39,1.39,0,0,0,.46.09l.13,0L83.91,75l-7.09.83a1.54,1.54,0,0,0-.26-.51Zm1.19-2.41,2.88-9.43,2.28,6.89L83.54,66A1.29,1.29,0,0,0,83.18,65.66Zm3.58-9.77a1.34,1.34,0,0,0,.31-.32l8.77,1.84a.36.36,0,0,0,0,.11,2.69,2.69,0,0,0,.2,1l-7,4.21Zm9.22.76-8.66-1.81a.43.43,0,0,1,0-.05,1.37,1.37,0,0,0-.28-.82l3-4.35L96.35,56A2.65,2.65,0,0,0,96,56.65Zm-6-8.23L86.56,45a1.14,1.14,0,0,0,.09-.46,1.18,1.18,0,0,0-.26-.73c.81-1.54,2.18-4.2,3.51-6.81l5.77,1.52a1.1,1.1,0,0,0,0,.18A1.77,1.77,0,0,0,96,39.73ZM89.5,36.07l-5.6-1.46a1.64,1.64,0,0,0,0-.22,1.8,1.8,0,0,0-.73-1.45L85,27.25l7.28,2a1.14,1.14,0,0,0,.34.73C92,31.22,90.77,33.58,89.5,36.07ZM87.1,21.24a2.22,2.22,0,0,0,.45-.06l4.78,7.35-7.15-2,1.64-5.31A1.33,1.33,0,0,0,87.1,21.24Zm-1-.3-1.66,5.38-10.1-2.84,11.12-3.31A1.85,1.85,0,0,0,86.1,20.94Zm-8.27-8.1H78a1.16,1.16,0,0,0,.42-.08l7,6a1.82,1.82,0,0,0-.13.67L74.19,22.73a1.14,1.14,0,0,0-.43-.58Zm-.68-.35L73,21.93l-3.43-8.16L77,12.35Zm-.46-.86-7.4,1.42L66.53,6.51ZM65.16,6.31a1,1,0,0,0,.44.09h.05l2.87,6.81L57.09,15.39a1.49,1.49,0,0,0-.17-.36Zm-13-2.23,12.38,1.7v0l-8.25,8.74a1.41,1.41,0,0,0-.86-.09c-1.22-2.33-3-6.43-4.19-9.07A2.52,2.52,0,0,0,52.19,4.08ZM49.72,5.92a2.65,2.65,0,0,0,.89-.16c1.15,2.64,3,6.7,4.18,9.05a1.42,1.42,0,0,0-.41.76H47.56a1.45,1.45,0,0,0-.66-1c.7-2.46,1.79-6.3,2.49-8.73ZM37.39,5.73l9.8-1.87a2.58,2.58,0,0,0,1.46,1.82C48,8.12,46.86,12,46.16,14.42a1.48,1.48,0,0,0-.56.12L37.36,5.8Zm-1.11.66h.06a1.12,1.12,0,0,0,.44-.09L45,15a1.46,1.46,0,0,0-.16.36L33.42,13.2Zm-.88.12-2.75,6.54-7.4-1.42ZM24.91,12.35l7.44,1.42-3.22,7.65a1.75,1.75,0,0,0-.4-.05h-.06l-3.88-8.88Zm-1.39.42a1.16,1.16,0,0,0,.42.08h.16l3.82,8.73a1.8,1.8,0,0,0-.87.95l-10.41-3.1a1.82,1.82,0,0,0-.14-.67Zm-7,7.4,10.46,3.12a2.25,2.25,0,0,0,.06.36l-9.5,2.67-1.67-5.38A1.8,1.8,0,0,0,16.48,20.17Zm-2.09,1a2.12,2.12,0,0,0,.44.06,1.43,1.43,0,0,0,.29,0l1.64,5.31-7.15,2ZM9.71,29.29l7.27-2,1.88,6.09a1.17,1.17,0,0,0-.7,1.08s0,.1,0,.16l-5.73,1.49L9.36,30A1.15,1.15,0,0,0,9.71,29.29ZM8.59,30.36h.08l3,5.92L6,37.76a1.46,1.46,0,0,0-.41-.48ZM4.83,40.44a1.81,1.81,0,0,0,.52-.2L11.42,49,5.21,55.26A2.57,2.57,0,0,0,4,54.72Zm4.89,32h0a1.81,1.81,0,0,0-.86.23l-4.13-13a2.27,2.27,0,0,0,.7-.49l7.27,4.36Zm3.63-8.52,4.78,2.86s0,0,0,.07a1.2,1.2,0,0,0,.14.57L10.94,72.9a1.9,1.9,0,0,0-.47-.33ZM15.9,82a1.14,1.14,0,0,0-.56.25l-4.82-6.47a1.87,1.87,0,0,0,.77-.78l5.82.68Zm.75.13,1.23-6.36,7.15.84a1.8,1.8,0,0,0,1.63,1.6L27.53,83H17.24A1.19,1.19,0,0,0,16.65,82.14Zm11.7,10.23L16.93,84a1.24,1.24,0,0,0,.17-.23H27.67l1.46,8A1.86,1.86,0,0,0,28.35,92.37Zm1.54-.67-1.44-7.94H36.5a.58.58,0,0,0,.1.12l-6.18,7.94A1.86,1.86,0,0,0,29.89,91.7Zm1.17.55,6.2-8h.11l2.44,5-8.48,3.31A1.46,1.46,0,0,0,31.06,92.25Zm11.15,5.21L31.48,94a1.7,1.7,0,0,0,.08-.51s0-.08,0-.12L40.15,90l3.11,6.39A2.55,2.55,0,0,0,42.21,97.46Zm2.27-1.38a2.73,2.73,0,0,0-.5,0l-3.11-6.4,7.8-3A1.93,1.93,0,0,0,49,87l-3.84,9.23A2.39,2.39,0,0,0,44.48,96.08Zm11.17,2.16-8.62,0a2.6,2.6,0,0,0-1.18-1.79l3.84-9.23c.11,0,.21,0,.32,0a1.69,1.69,0,0,0,.5-.08l5.71,10.07A1.82,1.82,0,0,0,55.65,98.24Zm1.77-1.44a1.84,1.84,0,0,0-.53.09l-5.71-10a1.09,1.09,0,0,0,.11-.1l9.6,3.36-3.26,6.72Zm1.56.9a1.87,1.87,0,0,0-.62-.63l3.26-6.71,8.76,3.07v.06a1.7,1.7,0,0,0,.08.51Zm11.6-5-8.63-3,2.62-5.38h.1l6.21,8A1.55,1.55,0,0,0,70.58,92.69Zm1.46-1a1.79,1.79,0,0,0-.52.12l-6.18-7.94a.54.54,0,0,0,.09-.12h8.06Zm1.54.67a1.86,1.86,0,0,0-.78-.57l1.47-8H84.58a2.25,2.25,0,0,0,.24.36ZM84.47,83H74.41l.87-4.78a1.8,1.8,0,0,0,1.63-1.6l7.15-.84,1.18,6.13A1.43,1.43,0,0,0,84.47,83Zm2.26-.92a1.39,1.39,0,0,0-.73-.3l-1.18-6.09L90.64,75a1.87,1.87,0,0,0,.77.78ZM91,72.9l-7.32-5.53a1.33,1.33,0,0,0,.13-.57.2.2,0,0,0,0-.07l4.79-2.86,2.88,8.7A1.59,1.59,0,0,0,91,72.9Zm2.1-.28a1.74,1.74,0,0,0-.85-.23h0l-2.95-8.93,7.17-4.3a2.65,2.65,0,0,0,.75.62Zm3.79-17.19L90.52,49l6.06-8.74a2,2,0,0,0,.53.2L97.91,55A2.48,2.48,0,0,0,96.89,55.43Z"/></svg>