<?xml version="1.0" encoding="UTF-8"?>
<svg width="128px" height="128px" viewBox="0 0 128 128" version="1.1" xmlns="http://www.w3.org/2000/svg" xmlns:xlink="http://www.w3.org/1999/xlink">
    <title>0xB44a9B6905aF7c801311e8F4E76932ee959c663C</title>
    <g id="Page-1" stroke="none" strokeWidth="1" fill="none" fillRule="evenodd">
        <g id="0xB44a9B6905aF7c801311e8F4E76932ee959c663C">
            <path d="M64,128 C99.3461333,128 128,99.3461333 128,64 C128,28.65376 99.3461333,0 64,0 C28.65376,0 0,28.65376 0,64 C0,99.3461333 28.65376,128 64,128 Z" id="Path" fill="#1969FE" fillRule="nonzero"></path>
            <path d="M68.8355556,50.3709659 L83.3422222,41.9662758 L83.3422222,58.7756561 L68.8355556,50.3709659 Z M83.3422222,86.3910664 L64,97.5973199 L44.6577778,86.3910664 L44.6577778,66.7801228 L64,77.9863763 L83.3422222,66.7801228 L83.3422222,86.3910664 Z M44.6577778,41.9662758 L59.1644444,50.3709659 L44.6577778,58.7756561 L44.6577778,41.9662758 Z M66.4177778,54.3731993 L80.9244444,62.7778894 L66.4177778,71.1825796 L66.4177778,54.3731993 Z M61.5822222,71.1825796 L47.0755556,62.7778894 L61.5822222,54.3731993 L61.5822222,71.1825796 Z M80.9244444,37.9640424 L64,47.5694026 L47.0755556,37.9640424 L64,27.958459 L80.9244444,37.9640424 Z M39.8222222,36.3631491 L39.8222222,88.7924065 L64,102.4 L88.1777778,88.7924065 L88.1777778,36.3631491 L64,22.7555556 L39.8222222,36.3631491 Z" id="Shape" fill="#FFFFFF"></path>
            <path d="M91.0222222,31.2888889 C93.6088335,32.237056 98.2647339,35.84 96.1954449,42.6666667" id="Path" stroke="#FFFFFF" strokeWidth="0.8"></path>
            <path d="M36.9777778,96.7111111 C34.3911665,95.7627733 29.7352661,92.16 31.8045551,85.3333333" id="Path" stroke="#FFFFFF" strokeWidth="0.8"></path>
        </g>
    </g>
</svg>