<?xml version="1.0" encoding="UTF-8"?>
<svg width="120px" height="120px" viewBox="0 0 120 120" version="1.1" xmlns="http://www.w3.org/2000/svg" xmlns:xlink="http://www.w3.org/1999/xlink">
    <title>0x765277eebeca2e31912c9946eae1021199b39c61</title>
    <g id="Page-1" stroke="none" strokeWidth="1" fill="none" fillRule="evenodd">
        <g id="0x765277eebeca2e31912c9946eae1021199b39c61" fillRule="nonzero">
            <circle id="Oval" fill="#E84142" cx="60" cy="60" r="60"></circle>
            <path d="M40.80225,85.358 C38.2443,85.358 35.68635,85.393 33.124,85.358 C30.31815,85.3075 29.2147,83.467 30.5902,81.0145 C34.45785,74.1105 38.3869,67.2395 42.294,60.3555 C47.58835,51.023 52.884,41.6987 58.1815,32.38245 C58.4125,31.9689 58.6705,31.571 58.9535,31.19125 C60.136,29.6205 62.117,29.5722 63.1545,31.2307 C64.9095,34.04315 66.529,36.9455 68.2005,39.815 C69.1525,41.45595 70.074,43.11665 71.0215,44.7598 C72.6385,47.55905 72.6735,50.354 71.0745,53.1775 C66.7395,60.8235 62.4095,68.4725 58.085,76.1245 C57.0955,77.8685 56.1105,79.6105 55.0815,81.339 C53.502,84.0175 51.1505,85.3645 48.03295,85.36 L40.80225,85.358 Z" id="Path" fill="#FEFDFD"></path>
            <path d="M79.6315,85.3605 C76.49,85.3605 73.35,85.3605 70.2115,85.3605 C69.516,85.3605 68.8165,85.3055 68.2,84.9525 C66.991,84.261 66.5965,82.8395 67.364,81.4425 C68.7945,78.8095 70.306,76.2385 71.8045,73.6545 C73.465,70.783 75.15,67.9245 76.83,65.066 C77.0535,64.687 77.2975,64.321 77.561,63.969 C78.684,62.4555 80.6055,62.42 81.709,63.945 C82.3675,64.8575 82.929,65.847 83.4995,66.821 C86.154,71.3545 88.8,75.8885 91.4385,80.422 C91.701,80.8595 91.9325,81.315 92.132,81.7845 C92.7745,83.364 91.998,84.8205 90.3505,85.2245 C89.5915,85.4085 88.828,85.3825 88.0645,85.3845 C85.252,85.3845 82.442,85.3845 79.6315,85.3845 L79.6315,85.3605 Z" id="Path" fill="#FEFDFD"></path>
        </g>
    </g>
</svg>