<?xml version="1.0" encoding="UTF-8"?>
<svg width="120px" height="120px" viewBox="0 0 120 120" version="1.1" xmlns="http://www.w3.org/2000/svg" xmlns:xlink="http://www.w3.org/1999/xlink">
    <title>0xc9baa8cfdde8e328787e29b4b078abf2dadc2055</title>
    <g id="Page-1" stroke="none" strokeWidth="1" fill="none" fillRule="evenodd">
        <g id="0xc9baa8cfdde8e328787e29b4b078abf2dadc2055">
            <circle id="Oval" fill="#FFFFFF" fillRule="nonzero" cx="60" cy="60" r="60"></circle>
            <g id="Group" opacity="0.2" style="mix-blend-mode: multiply;" fill="#191326">
                <path d="M60,116.087 C90.976,116.087 116.087,90.976 116.087,60 C116.087,29.0239 90.976,3.913105 60,3.913105 C29.02415,3.913105 3.91311,29.0239 3.91311,60 C3.91311,90.976 29.02415,116.087 60,116.087 Z M60,120 C93.1375,120 120,93.137 120,60 C120,26.863 93.1375,0 60,0 C26.863,0 0,26.863 0,60 C0,93.137 26.863,120 60,120 Z" id="Shape"></path>
            </g>
            <path d="M81.6205,46.3848 C80.114,45.49685 78.155,45.49685 76.498,46.3848 L64.7465,53.1925 L56.7615,57.6325 L45.0098,64.44 C43.5032,65.3275 41.5446,65.3275 39.8873,64.44 L30.5463,59.112 C29.0397,58.224 27.98505,56.5965 27.98505,54.8205 L27.98505,44.3129 C27.98505,42.537 28.88905,40.9091 30.5463,40.02115 L39.73665,34.84145 C41.24325,33.9535 43.20185,33.9535 44.85915,34.84145 L54.0495,40.02115 C55.556,40.9091 56.6105,42.537 56.6105,44.3129 L56.6105,51.1205 L64.596,46.5328 L64.596,39.7252 C64.596,37.94925 63.692,36.32135 62.0345,35.4334 L45.0098,25.66595 C43.5032,24.778 41.5446,24.778 39.8873,25.66595 L22.56125,35.4334 C20.90395,36.32135 20,37.94925 20,39.7252 L20,59.408 C20,61.184 20.90395,62.812 22.56125,63.7 L39.8873,73.4675 C41.3939,74.3555 43.35255,74.3555 45.0098,73.4675 L56.7615,66.8075 L64.7465,62.22 L76.498,55.5605 C78.0045,54.6725 79.963,54.6725 81.6205,55.5605 L90.811,60.74 C92.3175,61.628 93.372,63.256 93.372,65.032 L93.372,75.539 C93.372,77.315 92.4685,78.943 90.811,79.831 L81.6205,85.1585 C80.114,86.0465 78.155,86.0465 76.498,85.1585 L67.308,79.979 C65.801,79.091 64.7465,77.463 64.7465,75.687 L64.7465,68.8795 L56.7615,73.4675 L56.7615,80.275 C56.7615,82.0505 57.6655,83.6785 59.3225,84.5665 L76.649,94.334 C78.155,95.222 80.114,95.222 81.771,94.334 L99.0975,84.5665 C100.604,83.6785 101.6585,82.0505 101.6585,80.275 L101.6585,60.592 C101.6585,58.816 100.7545,57.1885 99.0975,56.3005 L81.6205,46.3848 Z" id="Path" fill="#8247E5" fillRule="nonzero"></path>
        </g>
    </g>
</svg>