<?xml version="1.0" encoding="UTF-8"?>
<svg width="102px" height="102px" viewBox="0 0 102 102" version="1.1" xmlns="http://www.w3.org/2000/svg" xmlns:xlink="http://www.w3.org/1999/xlink">
    <title>LIQ_logo</title>
    <g id="Page-1" stroke="none" stroke-width="1" fill="none" fill-rule="evenodd">
        <g id="LIQ_logo" fill-rule="nonzero">
            <path d="M50.9877336,101.934894 L50.9877336,101.934894 C22.8476226,101.934894 0.0349121184,79.1221832 0.0349121184,50.9820722 L0.0349121184,50.9820722 C0.0349121184,22.8419611 22.8476226,0.0292506938 50.9877336,0.0292506938 L50.9877336,0.0292506938 C79.1278446,0.0292506938 101.940555,22.8419611 101.940555,50.9820722 L101.940555,50.9820722 C101.940555,79.1221832 79.1278446,101.934894 50.9877336,101.934894 Z" id="Path" fill="#112455"></path>
            <path d="M64.9280481,65.7480111 L53.0116929,77.6643663 C51.8945051,78.7815541 50.0819056,78.7815541 48.9647179,77.6643663 L37.0474191,65.7480111 C36.3161517,65.0167438 36.0368548,63.9476781 36.3152081,62.9522109 L43.4240703,37.5843108 L43.4240703,60.360222 C43.4240703,60.7121739 43.9354857,60.753691 43.9930435,60.406457 L50.9877336,17.9882331 L57.979593,60.4055134 C58.0371508,60.7527475 58.5485661,60.7102868 58.5485661,60.3592784 L58.5485661,37.5852544 L65.660259,62.9522109 C65.9386124,63.9476781 65.6593154,65.0167438 64.9280481,65.7480111 Z" id="Path" fill="#17E7D6"></path>
        </g>
    </g>
</svg>