<?xml version="1.0" encoding="UTF-8"?>
<svg xmlns="http://www.w3.org/2000/svg" xmlns:xlink="http://www.w3.org/1999/xlink" width="102px" height="102px" viewBox="0 0 102 102" version="1.1">
<g id="surface1">
<path style=" stroke:none;fill-rule:evenodd;fill:rgb(6.27451%,13.72549%,27.058824%);fill-opacity:1;" d="M 53.40625 12.785156 C 53.300781 15.546875 51.769531 19.410156 50.179688 21.980469 C 53.398438 21.660156 55.632812 21.871094 58.625 24.257812 C 58.21875 19.554688 56.753906 15.335938 53.40625 12.785156 "/>
<path style=" stroke:none;fill-rule:evenodd;fill:rgb(6.27451%,13.72549%,27.058824%);fill-opacity:1;" d="M 63.105469 28.875 C 63.53125 26.015625 63.613281 23.222656 63.050781 20.554688 C 64.472656 21.203125 65.898438 21.847656 67.324219 22.492188 C 66.714844 25.382812 65.050781 27.246094 63.105469 28.875 "/>
<path style=" stroke:none;fill-rule:nonzero;fill:rgb(6.27451%,13.72549%,27.058824%);fill-opacity:1;" d="M 68.765625 20.671875 L 50.882812 10.347656 L 15.136719 30.980469 L 15.136719 72.285156 L 50.875 92.917969 L 68.753906 82.597656 L 68.765625 82.597656 L 86.625 72.285156 L 86.625 30.980469 Z M 52.292969 4.621094 L 92.3125 27.726562 L 92.3125 75.539062 L 71.59375 87.5 L 71.597656 87.507812 L 50.886719 99.464844 L 9.449219 75.539062 L 9.449219 27.726562 L 50.882812 3.804688 Z M 52.292969 4.621094 "/>
<path style=" stroke:none;fill-rule:evenodd;fill:rgb(27.843137%,60%,96.078431%);fill-opacity:1;" d="M 50.882812 7.074219 L 89.46875 29.355469 L 89.46875 73.914062 L 70.175781 85.050781 L 50.882812 96.191406 L 31.585938 85.050781 L 12.292969 73.914062 L 12.292969 29.355469 L 31.585938 18.214844 Z M 50.882812 7.074219 "/>
<path style=" stroke:none;fill-rule:nonzero;fill:rgb(6.27451%,13.72549%,27.058824%);fill-opacity:1;" d="M 35.671875 19.011719 C 35.703125 15.976562 35.445312 13.027344 34.839844 10.457031 L 33.667969 5.515625 L 38.4375 7.273438 C 41.613281 8.441406 44.777344 10.171875 47.660156 12.351562 C 50.40625 14.429688 52.925781 16.941406 54.984375 19.796875 L 56.828125 22.355469 L 33.484375 34.476562 L 34.621094 28.882812 C 35.261719 25.734375 35.640625 22.320312 35.671875 19.011719 M 40.964844 14.460938 C 41.085938 15.957031 41.136719 17.496094 41.121094 19.054688 C 41.101562 20.875 40.992188 22.714844 40.800781 24.53125 L 48.546875 20.507812 C 47.277344 19.117188 45.867188 17.84375 44.367188 16.710938 C 43.269531 15.878906 42.128906 15.128906 40.964844 14.460938 "/>
<path style=" stroke:none;fill-rule:evenodd;fill:rgb(6.27451%,13.72549%,27.058824%);fill-opacity:1;" d="M 37.5 9.835938 C 38.855469 15.566406 38.59375 23.03125 37.292969 29.425781 L 52.773438 21.390625 C 48.90625 16.03125 43.21875 11.945312 37.5 9.835938 "/>
<path style=" stroke:none;fill-rule:nonzero;fill:rgb(6.27451%,13.72549%,27.058824%);fill-opacity:1;" d="M 78.019531 24.8125 C 82.992188 27.320312 87.691406 30.507812 91.371094 33.8125 L 92.3125 34.660156 L 92.3125 75.539062 L 50.882812 99.460938 L 37.839844 91.933594 L 41.707031 89.410156 C 44.25 87.75 46.730469 85.386719 48.96875 82.433594 C 50.773438 80.050781 52.425781 77.289062 53.832031 74.195312 C 49.914062 71.679688 45.660156 70.691406 41.472656 70.867188 C 35.941406 71.101562 30.484375 73.371094 25.996094 76.863281 L 24.570312 77.96875 L 22.960938 77.152344 C 16.410156 73.8125 11.378906 70.066406 6.125 66.152344 C 4.785156 65.15625 3.425781 64.144531 2.609375 63.546875 L 0 61.640625 L 2.21875 59.300781 C 5.449219 55.894531 8.601562 52.757812 12.046875 49.78125 C 14.589844 47.582031 17.277344 45.484375 20.242188 43.453125 C 20.070312 43.28125 19.898438 43.097656 19.726562 42.902344 L 18.152344 41.15625 L 19.582031 39.28125 C 22.75 35.128906 26.628906 31.472656 30.960938 28.195312 C 34.96875 25.164062 39.394531 22.441406 44.007812 19.945312 C 45.109375 17.707031 46.117188 15.414062 46.957031 13.027344 C 47.882812 10.386719 48.621094 7.597656 49.066406 4.585938 L 49.75 0 L 53.523438 2.683594 C 56.546875 4.835938 59.007812 7.617188 60.988281 10.667969 C 62.972656 13.726562 64.476562 17.054688 65.582031 20.273438 C 69.664062 21.136719 73.949219 22.753906 78.019531 24.8125 M 86.625 37.207031 C 83.453125 34.519531 79.5625 31.949219 75.464844 29.878906 C 71.289062 27.765625 66.933594 26.1875 62.960938 25.550781 L 61.210938 25.269531 L 60.695312 23.582031 C 59.6875 20.308594 58.238281 16.847656 56.230469 13.757812 C 55.464844 12.574219 54.613281 11.449219 53.679688 10.40625 C 53.285156 11.945312 52.824219 13.4375 52.3125 14.894531 C 51.273438 17.847656 50.03125 20.617188 48.683594 23.289062 L 48.28125 24.085938 L 47.480469 24.511719 C 42.863281 26.972656 38.414062 29.679688 34.382812 32.730469 C 31.167969 35.160156 28.242188 37.800781 25.738281 40.699219 C 26 40.882812 26.285156 41.066406 26.597656 41.257812 L 30.488281 43.660156 L 26.609375 46.078125 C 22.496094 48.640625 18.992188 51.273438 15.757812 54.070312 C 13.269531 56.21875 10.917969 58.480469 8.558594 60.894531 L 9.503906 61.597656 C 14.105469 65.027344 18.53125 68.320312 23.996094 71.273438 C 29.070312 67.730469 35.089844 65.460938 41.253906 65.203125 C 47.34375 64.941406 53.542969 66.640625 59.085938 70.980469 L 60.765625 72.300781 L 59.972656 74.269531 C 58.207031 78.648438 55.984375 82.550781 53.480469 85.855469 C 51.867188 87.980469 50.136719 89.855469 48.335938 91.453125 L 50.882812 92.921875 L 86.625 72.285156 Z M 86.625 37.207031 "/>
<path style=" stroke:none;fill-rule:evenodd;fill:rgb(27.843137%,60%,96.078431%);fill-opacity:1;" d="M 89.46875 35.921875 C 82.707031 29.851562 72.285156 24.175781 63.40625 22.75 C 61.441406 16.355469 57.855469 9.25 51.878906 4.996094 C 50.929688 11.375 48.753906 16.851562 46.148438 22.011719 C 36.625 27.089844 27.835938 33.140625 21.835938 41.003906 C 22.878906 42.160156 23.761719 42.835938 25.109375 43.667969 C 16.644531 48.9375 10.632812 54.550781 4.273438 61.257812 C 10.804688 66.027344 16.4375 70.636719 24.25 74.617188 C 33.542969 67.386719 46.777344 64.9375 57.339844 73.214844 C 53.925781 81.691406 48.757812 88.195312 43.253906 91.785156 C 45.796875 93.253906 48.339844 94.722656 50.882812 96.191406 L 89.46875 73.914062 Z M 89.46875 35.921875 "/>
<path style=" stroke:none;fill-rule:evenodd;fill:rgb(15.686275%,42.352941%,85.882353%);fill-opacity:1;" d="M 6.472656 59.273438 C 5.734375 59.929688 5 60.59375 4.273438 61.257812 C 10.992188 66.042969 16.585938 70.660156 24.25 74.617188 C 33.542969 67.386719 46.777344 64.9375 57.339844 73.214844 C 57.027344 73.992188 56.699219 74.753906 56.355469 75.5 C 57.996094 75.527344 59.652344 75.542969 61.335938 75.539062 C 54.214844 62 33.59375 64.515625 23.953125 71.089844 C 17.675781 67.808594 12.886719 63.382812 6.472656 59.273438 "/>
<path style=" stroke:none;fill-rule:evenodd;fill:rgb(74.117647%,87.45098%,100%);fill-opacity:1;" d="M 44.355469 22.984375 C 41.90625 24.289062 40.761719 25.023438 38.445312 26.472656 L 33.074219 51.382812 L 43.964844 46.0625 L 38.964844 61.347656 L 44.972656 59.09375 L 52.707031 35.683594 L 40.695312 41.925781 Z M 44.355469 22.984375 "/>
<path style=" stroke:none;fill-rule:evenodd;fill:rgb(15.686275%,42.352941%,85.882353%);fill-opacity:1;" d="M 44.484375 35.59375 L 48.042969 32.550781 L 52.074219 30.253906 L 41.472656 47.28125 L 31.976562 45.734375 L 32.707031 47.742188 L 25.054688 44.679688 Z M 44.484375 35.59375 "/>
<path style=" stroke:none;fill-rule:evenodd;fill:rgb(27.843137%,60%,96.078431%);fill-opacity:1;" d="M 46.773438 38.765625 L 41.472656 47.28125 L 34.214844 46.097656 L 35.582031 39.757812 L 41.664062 36.910156 L 40.695312 41.925781 Z M 46.773438 38.765625 "/>
<path style=" stroke:none;fill-rule:evenodd;fill:rgb(15.686275%,42.352941%,85.882353%);fill-opacity:1;" d="M 89.46875 38.058594 C 84.5625 33.652344 76.84375 28.683594 69.953125 26.425781 C 72.699219 29.714844 74.046875 32.917969 74.75 37.671875 C 68.589844 34.914062 62.832031 34.28125 57.472656 34.496094 C 62.464844 41.28125 65.996094 50.679688 69.40625 60.4375 C 66.773438 59.050781 63.949219 58.03125 60.632812 57.933594 C 63.828125 61.371094 65.777344 65.660156 67.296875 70.238281 C 64.410156 67.542969 60.449219 65.515625 57.132812 64.605469 C 60.316406 78.710938 55.113281 85.242188 45.398438 93.027344 L 50.882812 96.191406 L 89.46875 73.914062 Z M 89.46875 38.058594 "/>
<path style=" stroke:none;fill-rule:evenodd;fill:rgb(74.117647%,87.45098%,100%);fill-opacity:1;" d="M 51.878906 4.996094 C 50.929688 11.375 48.753906 16.851562 46.148438 22.011719 C 36.625 27.089844 27.835938 33.140625 21.835938 41.003906 C 22.878906 42.160156 24.144531 43.078125 25.492188 43.910156 C 25.277344 44.042969 25.0625 44.175781 24.851562 44.308594 C 18.664062 47.050781 8.378906 56.410156 3.207031 61.332031 C 3.765625 61.707031 4.324219 62.078125 4.886719 62.449219 C 9.46875 57.164062 12.433594 53.875 19.3125 49 C 23.050781 47.894531 27.480469 47.496094 32.511719 47.722656 L 26.140625 44.851562 L 26.160156 43.75 C 33.808594 40.453125 41.152344 36.78125 48.042969 32.550781 C 41.550781 35.710938 34.394531 39.128906 27.359375 40.964844 C 26.082031 40.960938 25.398438 40.726562 24.164062 40.574219 C 29.214844 33.535156 37.167969 27.28125 47.269531 22.714844 C 49.417969 18.125 52.992188 9.722656 51.878906 4.996094 "/>
<path style=" stroke:none;fill-rule:evenodd;fill:rgb(6.27451%,13.72549%,27.058824%);fill-opacity:1;" d="M 9.410156 54.761719 C 7.144531 56.894531 4.960938 59.089844 2.835938 61.332031 C 5.085938 63.0625 6.335938 63.90625 8.640625 65.570312 C 10.878906 63.574219 13.007812 61.46875 14.589844 58.75 C 13.015625 57.167969 11.328125 55.769531 9.410156 54.761719 "/>
<path style=" stroke:none;fill-rule:nonzero;fill:rgb(6.27451%,13.72549%,27.058824%);fill-opacity:1;" d="M 21.769531 69.800781 C 22.519531 70.277344 23.269531 70.757812 24.058594 71.230469 C 29.117188 67.710938 35.113281 65.460938 41.253906 65.203125 C 47.34375 64.941406 53.542969 66.640625 59.085938 70.980469 L 60.765625 72.300781 L 59.972656 74.269531 C 58.207031 78.648438 55.984375 82.550781 53.480469 85.855469 C 51.867188 87.980469 50.136719 89.855469 48.335938 91.453125 L 50.882812 92.921875 L 86.625 72.285156 L 86.625 56.863281 C 84.1875 54.980469 81.113281 53.25 77.820312 51.800781 C 75.363281 50.722656 72.796875 49.808594 70.292969 49.109375 L 70.546875 50.039062 C 71.011719 51.816406 71.417969 53.601562 71.597656 54.929688 L 72.226562 59.617188 L 67.796875 57.972656 C 64.144531 56.621094 60.503906 55.554688 56.820312 54.832031 C 53.316406 54.144531 49.785156 53.757812 46.183594 53.707031 C 40.996094 56.21875 36.242188 58.914062 31.832031 61.90625 C 28.28125 64.3125 24.941406 66.921875 21.769531 69.800781 M 18.566406 74.476562 C 17.699219 73.925781 16.832031 73.371094 15.707031 72.703125 L 12.53125 70.824219 L 15.164062 68.238281 C 19.335938 64.136719 23.800781 60.507812 28.652344 57.214844 C 33.476562 53.945312 38.664062 51.023438 44.328125 48.3125 L 44.910156 48.035156 L 45.550781 48.035156 C 49.8125 48.046875 53.910156 48.46875 57.90625 49.253906 C 60.273438 49.71875 62.609375 50.308594 64.929688 51.007812 C 64.417969 49.109375 63.855469 47.289062 63.46875 46.222656 L 61.828125 41.660156 L 66.601562 42.46875 C 70.894531 43.195312 75.660156 44.65625 80.089844 46.601562 C 84.335938 48.46875 88.308594 50.796875 91.3125 53.363281 L 92.3125 54.21875 L 92.3125 75.539062 L 50.882812 99.460938 L 37.839844 91.933594 L 41.707031 89.410156 C 44.25 87.75 46.730469 85.386719 48.96875 82.433594 C 50.773438 80.054688 52.425781 77.289062 53.832031 74.195312 C 49.914062 71.679688 45.660156 70.691406 41.472656 70.867188 C 35.941406 71.101562 30.484375 73.371094 25.992188 76.863281 L 24.519531 78.007812 L 22.882812 77.105469 C 21.453125 76.320312 20.007812 75.398438 18.566406 74.476562 "/>
<path style=" stroke:none;fill-rule:evenodd;fill:rgb(100%,100%,100%);fill-opacity:1;" d="M 17.152344 70.261719 C 19.550781 71.679688 21.785156 73.261719 24.25 74.617188 C 33.542969 67.386719 46.773438 64.9375 57.339844 73.214844 C 53.925781 81.691406 48.757812 88.195312 43.253906 91.785156 C 45.796875 93.253906 48.339844 94.722656 50.882812 96.191406 L 89.46875 73.914062 L 89.46875 55.519531 C 83.746094 50.625 74.070312 46.609375 66.136719 45.265625 C 66.945312 47.515625 68.421875 52.617188 68.785156 55.308594 C 61.222656 52.503906 53.632812 50.890625 45.550781 50.871094 C 34.46875 56.171875 25.273438 62.277344 17.152344 70.261719 "/>
<path style=" stroke:none;fill-rule:evenodd;fill:rgb(69.411765%,81.960784%,96.078431%);fill-opacity:1;" d="M 45.398438 93.027344 L 45.515625 93.09375 L 45.636719 93.164062 L 45.757812 93.230469 L 45.875 93.300781 L 45.996094 93.371094 L 46.113281 93.4375 L 46.234375 93.507812 L 46.351562 93.574219 L 46.472656 93.644531 L 46.589844 93.714844 L 46.710938 93.78125 L 46.828125 93.851562 L 46.949219 93.921875 L 47.066406 93.988281 L 47.1875 94.058594 L 47.304688 94.125 L 47.425781 94.195312 L 47.542969 94.265625 L 47.664062 94.332031 L 47.78125 94.402344 L 47.902344 94.46875 L 48.019531 94.539062 L 48.140625 94.609375 L 48.257812 94.675781 L 48.378906 94.746094 L 48.496094 94.816406 L 48.617188 94.882812 L 48.734375 94.953125 L 48.855469 95.019531 L 48.972656 95.089844 L 49.09375 95.160156 L 49.210938 95.226562 L 49.332031 95.296875 L 49.449219 95.363281 L 49.691406 95.503906 L 49.808594 95.570312 L 49.929688 95.640625 L 50.046875 95.710938 L 50.167969 95.777344 L 50.285156 95.847656 L 50.40625 95.914062 L 50.523438 95.984375 L 50.644531 96.054688 L 50.761719 96.121094 L 50.882812 96.191406 L 89.46875 73.914062 L 89.46875 55.519531 C 83.746094 50.625 74.070312 46.609375 66.136719 45.265625 C 67.628906 49.015625 68.355469 52.742188 68.972656 56.472656 C 67.839844 56.132812 62.675781 54.460938 60.871094 54.007812 C 63.921875 56.40625 65.765625 59.539062 67.753906 62.546875 C 65.121094 61.160156 61.269531 60.847656 57.953125 60.753906 C 61.148438 64.191406 64.125 66.769531 65.644531 71.351562 C 62.757812 68.65625 58.796875 66.625 55.480469 65.714844 C 55.796875 67.109375 56.042969 68.417969 56.226562 69.652344 C 47.042969 63.058594 31.832031 65.71875 23.953125 71.089844 C 22.316406 70.273438 20.683594 69.390625 19.050781 68.457031 C 18.34375 69.109375 17.785156 69.546875 17.097656 70.222656 C 19.492188 71.65625 21.804688 73.273438 24.25 74.617188 C 24.539062 74.390625 24.835938 74.171875 25.132812 73.953125 C 33.746094 67.6875 45.21875 65.652344 54.820312 71.46875 C 54.988281 71.570312 55.160156 71.675781 55.328125 71.785156 C 55.5 71.894531 55.667969 72.007812 55.835938 72.121094 C 56.007812 72.234375 56.175781 72.351562 56.34375 72.46875 L 56.550781 72.621094 C 56.605469 73.421875 56.625 74.191406 56.613281 74.929688 L 56.609375 74.9375 L 56.515625 75.148438 L 56.507812 75.164062 L 56.5 75.183594 L 56.453125 75.289062 L 56.433594 75.324219 L 56.355469 75.5 L 56.59375 75.503906 C 56.28125 82.9375 52.476562 87.355469 45.398438 93.027344 "/>
<path style=" stroke:none;fill-rule:evenodd;fill:rgb(6.27451%,13.72549%,27.058824%);fill-opacity:1;" d="M 65.730469 82.382812 C 62.4375 73.632812 50.949219 65.546875 39.433594 68.1875 C 45.527344 68.039062 51.46875 71.621094 55.859375 75.351562 L 54.09375 79.847656 C 58.363281 78.839844 61.917969 79.742188 65.730469 82.382812 "/>
<path style=" stroke:none;fill-rule:nonzero;fill:rgb(6.27451%,13.72549%,27.058824%);fill-opacity:1;" d="M 51.890625 55.734375 C 52.503906 55.089844 53.101562 54.425781 53.695312 53.734375 C 52.84375 53.605469 51.992188 53.492188 51.140625 53.394531 C 49.296875 53.179688 47.480469 53.046875 45.703125 53.015625 C 42.507812 54.398438 39.539062 55.9375 36.765625 57.613281 L 36.152344 57.988281 C 40.152344 57.828125 43.523438 58.460938 46.851562 59.085938 L 48.082031 59.3125 C 49.503906 58.125 50.730469 56.957031 51.890625 55.734375 M 59.078125 53.601562 C 57.625 55.402344 56.28125 57 54.828125 58.53125 C 53.363281 60.074219 51.796875 61.539062 49.914062 63.054688 L 49.199219 63.632812 L 48.304688 63.476562 C 47.730469 63.378906 46.917969 63.222656 46.105469 63.070312 C 41.011719 62.113281 35.800781 61.136719 28.136719 63.554688 L 17.894531 66.792969 L 26.253906 60.039062 C 28.855469 57.9375 31.648438 55.960938 34.671875 54.136719 C 37.6875 52.3125 40.953125 50.628906 44.496094 49.121094 L 44.878906 48.957031 L 45.308594 48.960938 C 47.441406 48.980469 49.535156 49.121094 51.601562 49.359375 C 53.683594 49.597656 55.773438 49.933594 57.878906 50.339844 L 61.195312 50.976562 Z M 59.078125 53.601562 "/>
<path style=" stroke:none;fill-rule:evenodd;fill:rgb(100%,100%,100%);fill-opacity:1;" d="M 57.496094 52.332031 C 54.65625 55.851562 52.253906 58.5625 48.644531 61.476562 C 42.5625 60.417969 36.769531 58.699219 27.527344 61.617188 C 32.570312 57.542969 38.40625 53.917969 45.292969 50.988281 C 49.339844 51.019531 53.390625 51.542969 57.496094 52.332031 "/>
<path style=" stroke:none;fill-rule:evenodd;fill:rgb(6.27451%,13.72549%,27.058824%);fill-opacity:1;" d="M 89.570312 67.613281 C 85.15625 62.960938 80.019531 60.074219 74.390625 58.378906 C 77.035156 61.6875 78.191406 66.117188 79.445312 70.730469 C 77.03125 69.148438 74.8125 68.054688 71.285156 67.269531 C 73.828125 71.238281 75.632812 76.292969 73.925781 83.074219 C 79.140625 80.0625 84.355469 77.050781 89.570312 74.039062 Z M 89.570312 67.613281 "/>
<path style=" stroke:none;fill-rule:evenodd;fill:rgb(6.27451%,13.72549%,27.058824%);fill-opacity:1;" d="M 26.210938 44.332031 L 48.042969 32.550781 L 40.960938 45.734375 Z M 26.210938 44.332031 "/>
<path style=" stroke:none;fill-rule:evenodd;fill:rgb(6.27451%,13.72549%,27.058824%);fill-opacity:1;" d="M 28.25 34.105469 C 25.945312 36.121094 23.929688 38.722656 22.535156 41.214844 C 22.710938 41.308594 26.351562 42.070312 26.820312 42.109375 C 29.914062 41.761719 33.761719 40.257812 36.308594 38.882812 C 35.410156 40.125 29.554688 44.058594 27.59375 44.464844 L 32.707031 47.742188 C 26.511719 47.066406 23.304688 46.914062 18.25 48.359375 C 19.992188 46.980469 21.730469 45.601562 23.46875 44.222656 C 22.382812 43.253906 21.296875 42.285156 20.210938 41.316406 C 22.167969 38.558594 25.230469 36.027344 28.25 34.105469 "/>
<path style=" stroke:none;fill-rule:evenodd;fill:rgb(100%,0%,0%);fill-opacity:1;" d="M 33.277344 42.914062 L 42.914062 37.714844 L 39.789062 43.535156 Z M 33.277344 42.914062 "/>
<path style=" stroke:none;fill-rule:nonzero;fill:rgb(6.27451%,13.72549%,27.058824%);fill-opacity:1;" d="M 51.488281 53.296875 L 48.261719 59.996094 L 43.511719 56.765625 L 41.835938 59.828125 L 38.390625 58.015625 C 36.246094 58.714844 34.132812 59.492188 32.054688 60.34375 C 29.851562 61.25 27.6875 62.226562 25.554688 63.269531 L 24.789062 61.703125 C 26.96875 60.640625 29.167969 59.640625 31.394531 58.730469 L 31.398438 58.730469 C 33.636719 57.816406 35.90625 56.980469 38.214844 56.242188 L 38.5625 56.132812 L 41.128906 57.484375 L 42.902344 54.242188 L 47.550781 57.402344 L 49.59375 53.015625 Z M 51.488281 53.296875 "/>
</g>
</svg>
