<?xml version="1.0" encoding="UTF-8"?>
<svg width="720px" height="720px" viewBox="0 0 720 720" version="1.1" xmlns="http://www.w3.org/2000/svg" xmlns:xlink="http://www.w3.org/1999/xlink">
    <title>sd</title>
    <defs>
        <linearGradient x1="82.8104%" y1="42.7061937%" x2="12.4312954%" y2="56.546245%" id="linearGradient-1">
            <stop stop-color="#50D546" offset="0%"></stop>
            <stop stop-color="#FFEB17" offset="51.2485211%"></stop>
            <stop stop-color="#FF8200" offset="100%"></stop>
        </linearGradient>
        <linearGradient x1="16.9903565%" y1="14.2720511%" x2="100%" y2="50%" id="linearGradient-2">
            <stop stop-color="#003DE9" offset="0%"></stop>
            <stop stop-color="#FF0058" offset="38.0035203%"></stop>
            <stop stop-color="#81BB47" offset="100%"></stop>
        </linearGradient>
    </defs>
    <g id="pa" stroke="none" strokeWidth="1" fill="none" fillRule="evenodd">
        <g id="-logo-with-text-D" transform="translate(-152.000000, -152.000000)">
            <g id="sd" transform="translate(152.000000, 152.000000)">
                <circle id="Oval" fill="#000420" cx="360" cy="360" r="360"></circle>
                <g id="logo" transform="translate(128.000000, 120.000000)">
                    <path d="M8.31404476,266.153374 L178.029981,432.861752 C195.66076,448.516853 212.01794,448.516853 227.10152,432.861752 C295.936482,363.028001 330.353963,328.111126 330.353963,328.111126 C358.431778,327.727143 373.172631,327.525552 374.576522,327.506353 L374.647455,327.505382 C374.656322,327.505261 374.663711,327.50516 374.669622,327.505079 L374.687355,327.504837 L374.687355,327.504837 C286.663471,418.507724 242.651529,464.009168 242.651529,464.009168 C214.639968,485.883081 188.15806,485.52914 163.205805,462.947347 C59.7352684,356.32859 8,303.019211 8,303.019211 L8.31404476,266.153374 Z M464,315.488429 L313.133882,465.704061 L275.630203,465.704061 L426.514795,315.488429 L464,315.488429 Z" id="Path-9" fill="url(#linearGradient-1)"></path>
                    <path d="M214.748872,6.73396227 C214.748872,6.73396227 158.984953,61.2923209 47.4571146,170.409038 C31.7472297,185.399185 31.7472297,201.655044 47.4571146,219.176613 L47.4571146,219.176613 L214.748872,387.841275 L177.754026,388.153374 C177.754026,388.153374 124.258097,336.73857 17.2662385,233.908962 C-5.39457823,209.111269 -5.74975722,182.793399 16.2007015,154.955351 C16.2007015,154.955351 67.1019072,105.548221 168.904319,6.73396227 L168.904319,6.73396227 Z M247.693423,17.326869 C272.625034,-5.21222762 299.085031,-5.5654988 327.073416,16.2670555 C327.073416,16.2670555 371.048944,61.6824657 459,152.513286 L459,152.513286 L458.960133,152.512742 C458.100777,152.501002 443.348495,152.299469 414.703288,151.908143 C414.703288,151.908143 380.314283,117.057288 311.536272,47.3555782 C296.465172,31.7300773 280.121526,31.7300773 262.505334,47.3555782 L262.505334,47.3555782 L92.9298154,213.748746 L92.6160305,176.952615 C92.6160305,176.952615 144.308495,123.744033 247.693423,17.326869 Z M303.824827,86.088911 L374.78321,152.25057 L338.368739,152.25057 L267.351827,86.088911 L303.824827,86.088911 Z" id="Path-8" fill="url(#linearGradient-2)"></path>
                </g>
            </g>
        </g>
    </g>
</svg>