<?xml version="1.0" encoding="UTF-8"?>
<svg width="120px" height="120px" viewBox="0 0 120 120" version="1.1" xmlns="http://www.w3.org/2000/svg" xmlns:xlink="http://www.w3.org/1999/xlink">
    <title>logo-green-ellipse-outline2-thin-gradient</title>
    <g id="Page-1" stroke="none" stroke-width="1" fill="none" fill-rule="evenodd">
        <g id="logo-green-ellipse-outline2-thin-gradient" fill="#43B446" fill-rule="nonzero">
            <path d="M59.9728618,0.0122470537 C26.8541576,0.0122470537 0.006243596,26.8604011 0.006243596,59.9791052 C0.006243596,93.0978094 26.8541577,119.945963 59.9728618,119.945963 C75.8770673,119.945963 91.1298835,113.62807 102.375855,102.382098 C113.621827,91.1361269 119.93972,75.8833108 119.93972,59.9791052 C119.93972,44.0748997 113.621827,28.8220835 102.375855,17.5761119 C91.1298835,6.33014034 75.8770673,0.0122470537 59.9728618,0.0122470537 Z M59.9728618,5.84664733 C74.3296882,5.84664733 88.098502,11.5498462 98.2503112,21.7016556 C108.40212,31.853465 114.105319,45.6222788 114.105319,59.9791052 C114.105319,74.3359315 108.40212,88.1047452 98.2503109,98.2565544 C88.0985017,108.408364 74.3296881,114.111562 59.9728618,114.111562 C30.0764078,114.111562 5.84064389,89.8755592 5.84064389,59.9791052 C5.84064389,30.0826509 30.0764075,5.84664733 59.9728618,5.84664733 L59.9728618,5.84664733 Z" id="circle822"></path>
            <g id="g830" transform="translate(16.514876, 21.009024)">
                <g id="g867" transform="translate(0.043450, 0.032824)">
                    <path d="M37.5303067,58.3262925 C30.1350227,57.2886058 23.9712664,52.1856266 21.6342807,45.1659466 C20.8274981,42.7424212 20.6895477,41.8456057 20.6867457,39.0015785 C20.6839034,36.1479401 20.8387473,35.115582 21.6250051,32.7540257 C24.0392548,25.5008958 30.5578139,20.2974042 38.2077239,19.5168696 C39.7038636,19.3629336 47.1581169,19.3629336 48.5583821,19.5171854 C54.670787,20.1840442 59.9898489,23.508786 63.192784,28.6643205 C67.1683002,35.0637174 67.0834775,43.2594292 62.9764841,49.5822724 C60.0331878,54.1135175 55.438908,57.1623388 49.9477337,58.2285432 C48.6118453,58.4886556 39.2101632,58.5610844 37.5306225,58.3272201 L37.5303067,58.3262925 Z" id="path4846"></path>
                    <g id="g4886" transform="translate(0.084565, 0.083594)">
                        <path d="M38.5997397,0 C33.4981832,0 28.4453969,1.00509541 23.7302428,2.9575765 C19.0203103,4.91000537 14.7277969,7.7739315 11.1248552,11.3815779 C7.51669191,14.9892138 4.65376313,19.273336 2.7008643,23.9869758 C1.40375308,27.1176345 0.565468652,30.4022485 0.120635896,33.7469846 L10.3599351,33.7469846 C11.3949714,28.0306304 14.1312229,22.7055191 18.2944481,18.540952 C23.677974,13.1557029 30.9813457,10.1373516 38.5997397,10.1373516 L43.8927743,10.1169871 L43.8510011,0 L38.5997397,0 Z M0.120635896,43.9557266 C0.565520869,47.3003948 1.40375308,50.5850766 2.7008643,53.7157301 C4.65376313,58.4293177 7.51669191,62.7134921 11.1248552,66.3211333 C14.7277969,69.9287745 19.0203103,72.7927528 23.7302428,74.7451294 C28.4453969,76.6975061 33.4981832,77.7027059 38.5997397,77.7027059 L43.8621755,77.6823415 L43.8621755,67.5653857 L38.5997397,67.5653857 C30.9813457,67.5653857 23.6779218,64.5366798 18.2944481,59.1515874 C14.1312229,54.9871821 11.3949714,49.6721591 10.3599351,43.9557266 L0.120635896,43.9557266 Z" id="path4882"></path>
                        <path d="M43.6480354,0 L43.6271488,10.1169558 L48.0431021,10.1373203 C55.6614962,10.1373203 62.9648678,13.1556716 68.3483937,18.5409206 C72.51188,22.705775 75.248027,28.0301448 76.2828545,33.7469532 L86.5120237,33.7469532 C86.0671387,30.4022172 85.2288543,27.1176032 83.9317953,23.9869445 C81.9788965,19.2733047 79.1261499,14.9891825 75.5179866,11.3815466 C71.9150449,7.77390017 67.6225315,4.90997404 62.912599,2.95754517 C58.1979149,1.00509541 53.1451286,0 48.043572,0 L43.6480354,0 Z M76.2833245,43.9557266 C75.248497,49.6725821 72.5123499,54.9868636 68.3488636,59.1515561 C62.9653377,64.5366485 55.6619661,67.5653544 48.043572,67.5653544 L43.7601965,67.5449899 L43.8019698,77.6823415 L48.0445641,77.7027059 C53.1461207,77.7027059 58.198907,76.6975061 62.9140611,74.7451294 C67.6239936,72.7927528 71.9165069,69.9287745 75.5194486,66.3211333 C79.127612,62.7134921 81.9803585,58.4293177 83.9332573,53.7157301 C85.2303163,50.5850766 86.0686008,47.3003948 86.5134857,43.9557266 L76.2833245,43.9557266 Z" id="path4884" opacity="0.61000001"></path>
                    </g>
                </g>
            </g>
        </g>
    </g>
</svg>