<?xml version="1.0" encoding="UTF-8"?>
<svg width="128px" height="130px" viewBox="0 0 128 130" version="1.1" xmlns="http://www.w3.org/2000/svg" xmlns:xlink="http://www.w3.org/1999/xlink">
    <title>0xbED48612BC69fA1CaB67052b42a95FB30C1bcFee</title>
    <g id="Page-1" stroke="none" strokeWidth="1" fill="none" fillRule="evenodd">
        <g id="0xbED48612BC69fA1CaB67052b42a95FB30C1bcFee">
            <g id="Group_931" transform="translate(0.129590, 4.372075)" fillRule="nonzero">
                <path d="M93.4559006,7.17515528 C90.136646,10.4944099 87.0956522,14.0919255 84.3925466,17.9279503 L83.5378882,17.6496894 C78.6086957,16.0397516 73.5006211,15.0459627 68.352795,14.7080745 C66.8024845,14.5888199 61.0186335,14.5888199 59.1304348,14.7080745 C53.426087,15.0857143 49.0534161,15.9403727 44.084472,17.6695652 C43.8857143,17.7490683 43.7068323,17.8086957 43.5279503,17.868323 C40.7254658,14.0521739 37.6049689,10.4745342 34.1664596,7.19503106 C50.663354,-1.25217391 69.9627329,-2.26583851 87.2347826,4.39254658 C89.0832298,5.08819876 90.8919255,5.90310559 92.6608696,6.77763975 L93.4559006,7.17515528 Z" id="Path_8573" fill="#F00500"></path>
                <path d="M124.223602,82.5639752 C121.719255,89.6993789 117.962733,96.3180124 113.093168,102.081988 C110.449689,105.182609 107.52795,108.024845 104.387578,110.608696 C97.0335404,116.531677 88.447205,120.765217 79.284472,122.991304 C69.1478261,125.436025 58.573913,125.436025 48.4372671,122.991304 C39.2546584,120.765217 30.6881988,116.531677 23.3341615,110.608696 C20.1937888,108.024845 17.2720497,105.182609 14.6285714,102.081988 C0.616149068,85.5254658 -3.63726708,62.7875776 3.49813665,42.2956522 C4.84968944,38.4993789 6.53913043,34.842236 8.56645963,31.3639752 C9.50062112,29.773913 10.6534161,27.9850932 11.2099379,27.2496894 C13.1180124,35.4583851 15.463354,42.6732919 16.3378882,45.2770186 C16.2782609,45.4161491 16.1987578,45.5751553 16.1192547,45.7142857 C11.4881988,55.0956522 8.98385093,64.1391304 8.38757764,73.7590062 C8.38757764,73.8782609 8.36770186,74.0173913 8.36770186,74.136646 C8.20869565,77.0186335 8.28819876,78.3900621 8.76521739,80.1987578 C10.2559006,85.863354 14.847205,92.1043478 22.042236,98.226087 C33.8285714,108.243478 49.8086957,115.478261 61.9130435,116.313043 C74.5341615,117.167702 93.157764,109.793789 105.560248,99.021118 C107.508075,97.2919255 109.336646,95.463354 111.045963,93.515528 C112.278261,92.084472 114.106832,89.6198758 113.967702,89.6198758 C113.92795,89.6198758 113.967702,89.5801242 114.047205,89.5403727 C114.106832,89.5006211 114.16646,89.4409938 114.126708,89.4012422 C114.106832,89.3813665 114.146584,89.3217391 114.206211,89.3018634 C114.265839,89.2819876 114.30559,89.242236 114.285714,89.2024845 C114.265839,89.1627329 114.285714,89.1229814 114.365217,89.1031056 C114.424845,89.0832298 114.44472,89.0236025 114.424845,88.9838509 C114.404969,88.9440994 114.424845,88.9043478 114.464596,88.9043478 C114.504348,88.9043478 114.544099,88.8447205 114.544099,88.8049689 C114.544099,88.7652174 114.583851,88.7055901 114.623602,88.7055901 C114.663354,88.7055901 114.703106,88.6658385 114.703106,88.626087 C114.762733,88.4670807 114.862112,88.3080745 114.961491,88.1689441 C115.259627,87.7118012 116.452174,85.5850932 116.61118,85.2273292 C117.744099,82.663354 118.459627,80.3776398 118.797516,78.0919255 C118.956522,76.9987578 119.055901,74.9913043 118.976398,74.5142857 C118.956522,74.4347826 118.956522,74.2956522 118.936646,74.0770186 C118.896894,73.6795031 118.877019,73.0832298 118.837267,72.4869565 C118.797516,71.5925466 118.718012,70.3403727 118.658385,69.7242236 C117.803727,60.7006211 115.498137,53.3267081 111.125466,45.515528 C110.946584,45.2173913 110.787578,44.9192547 110.688199,44.6807453 C110.648447,44.621118 110.628571,44.5614907 110.608696,44.5217391 L110.608696,44.5217391 C111.224845,42.6732919 113.749068,34.9416149 115.756522,26.0968944 L115.796273,26.136646 L116.09441,26.5341615 C116.61118,27.2298137 117.982609,29.2968944 118.598758,30.2906832 C121.401242,34.8621118 123.587578,39.7714286 125.137888,44.8993789 C128.735404,57.242236 128.437267,70.4 124.223602,82.5639752 Z" id="Path_8574" fill="#F00500"></path>
                <path d="M98.4248447,58.8124224 C98.3652174,59.1304348 97.4310559,60.084472 96.4968944,60.7801242 C93.7540373,62.7875776 88.8447205,64.6559006 83.8559006,65.5503106 C81.0136646,66.0670807 78.1714286,66.1465839 77.3167702,65.7291925 C76.7602484,65.4509317 76.6807453,65.2322981 76.8795031,64.5167702 C77.2968944,63.026087 78.6484472,61.3962733 80.7552795,59.8658385 C81.8285714,59.0906832 86.1813665,56.447205 88.2086957,55.3341615 C91.5478261,53.5055901 94.2509317,52.4124224 96.0795031,52.1540373 C96.6559006,52.0745342 97.3515528,52.0546584 97.5701863,52.1540373 C97.9279503,52.2931677 98.3254658,53.3465839 98.484472,54.6186335 C98.5639752,55.2944099 98.5242236,58.2757764 98.4248447,58.8124224 Z" id="Path_8575" fill="#000000"></path>
                <path d="M51.5975155,65.3913043 C51.4782609,65.6298137 50.8819876,65.8881988 50.2062112,65.9875776 C49.5304348,66.0869565 47.463354,66.0273292 46.2906832,65.8881988 C42.0770186,65.331677 37.6049689,64.0397516 34.3453416,62.4496894 C32.5167702,61.5552795 31.2049689,60.6608696 30.2310559,59.6869565 L29.6745342,59.110559 L29.6149068,58.3552795 C29.515528,57.0434783 29.5354037,54.9763975 29.6944099,54.2409938 C29.7937888,53.6248447 30.0124224,53.0285714 30.310559,52.4919255 C30.4695652,52.2931677 30.4695652,52.2931677 31.1850932,52.2931677 C32.0596273,52.2931677 32.7950311,52.4322981 33.9875776,52.8099379 C36.4322981,53.5652174 40.0695652,55.3937888 44.5018634,58.0571429 C48.1590062,60.2434783 49.5304348,61.3167702 50.5838509,62.7875776 C51.2993789,63.7018634 51.7763975,64.9937888 51.5975155,65.3913043 Z" id="Path_8576" fill="#000000"></path>
                <path d="M79.7416149,93.0583851 C79.7416149,93.1180124 79.5031056,94.0720497 79.2049689,95.2049689 C78.9068323,96.3378882 78.668323,97.2521739 78.668323,97.2919255 C78.4496894,97.3118012 78.2509317,97.331677 78.0322981,97.3118012 L77.3962733,97.3118012 L76.5217391,99.378882 C76.0447205,100.511801 75.6074534,101.565217 75.5478261,101.724224 L75.4285714,102.002484 L75.0111801,101.326708 L74.5937888,100.650932 L74.5937888,95.1453416 L74.4347826,95.1850932 C74.0968944,95.2645963 71.6919255,95.5826087 70.6385093,95.6819876 C66.2857143,96.1192547 61.9130435,96.0198758 57.5801242,95.4037267 C56.884472,95.3043478 56.2881988,95.2248447 56.268323,95.2447205 C56.2484472,95.2645963 56.268323,96.536646 56.3080745,98.1068323 L56.3677019,100.929193 L56.0298137,101.445963 C55.8509317,101.724224 55.6720497,101.962733 55.6720497,101.982609 C55.6124224,102.042236 55.4136646,101.724224 54.9565217,100.809938 C54.4596273,99.8559006 54.1018634,98.842236 53.8434783,97.7888199 L53.7043478,97.2124224 L53.0881988,97.2521739 L52.4720497,97.3118012 L52.3130435,96.5763975 C52.2335404,96.178882 52.1341615,95.5627329 52.0944099,95.2248447 L52.0347826,94.5888199 L51.5180124,94.131677 C51.2198758,93.8732919 50.9217391,93.6149068 50.8621118,93.5751553 C50.7627329,93.4956522 50.7229814,93.3565217 50.7229814,93.2372671 L50.7229814,92.9987578 L53.2074534,93.0186335 L55.6919255,93.0385093 L55.7714286,93.2968944 L55.8509317,93.5552795 L56.7055901,93.5950311 C57.1826087,93.6149068 58.6931677,93.6546584 60.0447205,93.6944099 L62.5291925,93.7540373 L63.1652174,92.7602484 L63.821118,91.7664596 L64.6559006,91.7664596 L64.6360248,89.6993789 L64.6161491,87.6322981 L63.5229814,87.1552795 C60.0049689,85.6049689 57.9378882,83.8360248 57.1627329,81.689441 C57.0037267,81.2521739 57.0037267,81.0931677 56.9639752,79.1055901 C56.9440994,77.1378882 56.9440994,76.9590062 57.0832298,76.5217391 C57.3614907,75.5279503 58.136646,74.752795 59.1304348,74.4944099 C59.468323,74.3950311 60.3627329,74.3950311 65.0534161,74.3950311 L70.578882,74.4149068 L71.1950311,74.7130435 C71.9304348,75.0708075 72.268323,75.3291925 72.6857143,75.8857143 C73.1627329,76.5217391 73.3018634,77.0186335 73.3018634,78.2310559 C73.3018634,79.9602484 73.1826087,81.4509317 73.0037267,82.047205 C72.7453416,82.8621118 72.3478261,83.6372671 71.8509317,84.3329193 C70.8571429,85.6049689 69.0484472,86.8770186 67.3987578,87.4534161 L66.9217391,87.6322981 L66.9416149,89.7192547 L66.9614907,91.8062112 L67.3987578,91.8459627 L67.8360248,91.8857143 L68.4322981,92.7801242 L69.0086957,93.6745342 L71.6720497,93.6745342 C73.1428571,93.6745342 74.4347826,93.6944099 74.5540373,93.7142857 C74.752795,93.7540373 74.7925466,93.7341615 74.9913043,93.3962733 L75.2298137,93.0385093 L77.515528,93.0385093 C79.2248447,92.9590062 79.7416149,92.9987578 79.7416149,93.0583851 Z" id="Path_8577" fill="#000000"></path>
                <path d="M69.247205,98.7627329 C68.8695652,98.9813665 68.6111801,99.0807453 68.5515528,99.0409938 C68.4919255,99.021118 68.2136646,98.7826087 67.915528,98.5639752 L67.378882,98.1267081 L66.8223602,98.7229814 C65.6099379,100.034783 65.5701863,100.09441 65.2124224,100.114286 C64.6559006,100.173913 64.536646,100.074534 63.8608696,99.0608696 C63.5031056,98.5440994 63.2248447,98.1068323 63.2248447,98.1068323 C63.2248447,98.1068323 62.9664596,98.0670807 62.668323,98.047205 L62.1118012,97.9875776 L61.8534161,98.5242236 L61.5950311,99.0608696 L61.1378882,98.9217391 C60.7801242,98.8024845 60.4223602,98.663354 60.084472,98.5043478 L59.4881988,98.2062112 L59.4881988,97.0732919 L64.7751553,97.0931677 L70.0621118,97.1130435 L70.0819876,97.6496894 C70.1018634,98.2857143 70.1217391,98.2658385 69.247205,98.7627329 Z" id="Path_8578" fill="#000000"></path>
            </g>
            <path d="M119.066236,78.8863602 C119.04636,78.8068571 119.04636,78.6677267 119.026484,78.4490932 C114.256298,77.932323 100.641391,77.6143106 88.0003975,88.0490932 C88.0003975,88.0490932 83.9258634,69.3658634 64.845118,69.3658634 C45.7643727,69.3658634 38.6885963,88.0490932 38.6885963,88.0490932 C27.9954286,76.5410186 13.6848696,77.3758012 8.5171677,78.1310807 C8.5171677,78.2503354 8.49729193,78.3894658 8.49729193,78.5087205 C8.33828571,81.3907081 8.41778882,82.7621366 8.89480745,84.5708323 C10.3854907,90.2354286 14.976795,96.4764224 22.1718261,102.598161 C33.9581615,112.615553 49.9382857,119.850335 62.0426335,120.685118 C74.6637516,121.539776 93.287354,114.165863 105.689839,103.393193 C107.637665,101.664 109.466236,99.8354286 111.175553,97.8876025 C112.407851,96.4565466 114.236422,93.9919503 114.097292,93.9919503 C114.05754,93.9919503 114.097292,93.9521988 114.176795,93.9124472 C114.236422,93.8726957 114.29605,93.8130683 114.256298,93.7733168 C114.236422,93.753441 114.276174,93.6938137 114.335801,93.6739379 C114.395429,93.6540621 114.43518,93.6143106 114.415304,93.574559 C114.395429,93.5348075 114.415304,93.4950559 114.494807,93.4751801 C114.554435,93.4553043 114.574311,93.395677 114.554435,93.3559255 C114.534559,93.3161739 114.554435,93.2764224 114.594186,93.2764224 C114.633938,93.2764224 114.673689,93.216795 114.673689,93.1770435 C114.673689,93.1372919 114.713441,93.0776646 114.753193,93.0776646 C114.792944,93.0776646 114.832696,93.037913 114.832696,92.9981615 C114.892323,92.8391553 114.991702,92.6801491 115.091081,92.5410186 C115.389217,92.0838758 116.581764,89.9571677 116.74077,89.5994037 C117.873689,87.0354286 118.589217,84.7497143 118.927106,82.464 C119.04636,81.3708323 119.145739,79.3633789 119.066236,78.8863602 Z M69.376795,103.134807 C68.9991553,103.353441 68.7407702,103.45282 68.6811429,103.413068 C68.6215155,103.393193 68.3432547,103.154683 68.045118,102.93605 L67.508472,102.498783 L66.9519503,103.095056 C65.739528,104.406857 65.6997764,104.466484 65.3420124,104.48636 C64.7854907,104.545988 64.666236,104.446609 63.9904596,103.432944 C63.6326957,102.916174 63.3544348,102.478907 63.3544348,102.478907 C63.3544348,102.478907 63.0960497,102.439155 62.797913,102.41928 L62.2413913,102.359652 L61.9830062,102.896298 L61.7246211,103.432944 L61.2674783,103.293814 C60.9097143,103.174559 60.5519503,103.035429 60.2140621,102.876422 L59.6177888,102.578286 L59.6177888,101.445366 L64.9047453,101.465242 L70.1917019,101.485118 L70.2115776,102.021764 C70.2314534,102.657789 70.2513292,102.637913 69.376795,103.134807 Z M79.3146832,99.5571677 C79.0165466,100.690087 78.7780373,101.604373 78.7780373,101.644124 C78.5594037,101.664 78.360646,101.683876 78.1420124,101.664 L77.5059876,101.664 L76.6513292,103.750957 C76.1743106,104.883876 75.7370435,105.937292 75.6774161,106.096298 L75.5581615,106.374559 L75.1407702,105.698783 L74.7233789,105.023006 L74.7233789,99.5174161 L74.5643727,99.5571677 C74.2264845,99.6366708 71.8215155,99.9546832 70.7680994,100.054062 C66.4153043,100.491329 62.0426335,100.39195 57.7097143,99.7758012 C57.0140621,99.6764224 56.4177888,99.5969193 56.397913,99.616795 C56.3780373,99.6366708 56.397913,100.90872 56.4376646,102.478907 L56.4972919,105.301267 L56.1594037,105.818037 C55.9805217,106.096298 55.8016398,106.334807 55.8016398,106.354683 C55.7420124,106.414311 55.5432547,106.096298 55.0861118,105.182012 C54.5892174,104.227975 54.2314534,103.214311 53.9730683,102.160894 L53.8339379,101.584497 L53.2177888,101.624248 L52.6016398,101.683876 L52.4426335,100.948472 C52.3631304,100.550957 52.2637516,99.9348075 52.224,99.5969193 L52.1643727,98.9608944 L51.6476025,98.5037516 C51.3494658,98.2453665 51.0513292,97.9869814 50.9917019,97.9472298 C50.892323,97.8677267 50.8525714,97.7285963 50.8525714,97.6093416 L50.8525714,97.3708323 L53.3370435,97.3907081 L55.8215155,97.4105839 L55.9010186,97.6689689 L55.9805217,97.927354 L56.8351801,97.9671056 C57.3121988,97.9869814 58.8227578,98.0267329 60.1743106,98.0664845 L62.6587826,98.1261118 L63.2948075,97.132323 L63.9507081,96.1385342 L64.7854907,96.1385342 L64.7656149,94.0714534 L64.7457391,92.0043727 L63.6525714,91.527354 C60.134559,89.9770435 58.0674783,88.2080994 57.292323,86.0615155 C57.1333168,85.6242484 57.1333168,85.4652422 57.0935652,83.4776646 C57.0736894,81.5099627 57.0736894,81.3310807 57.2128199,80.8938137 C57.4910807,79.9000248 58.266236,79.1248696 59.2600248,78.8664845 C59.597913,78.7671056 60.492323,78.7671056 65.1830062,78.7671056 L70.708472,78.7869814 L71.3246211,79.085118 C72.0600248,79.442882 72.397913,79.7012671 72.8153043,80.2577888 C73.292323,80.8938137 73.4314534,81.3907081 73.4314534,82.6031304 C73.4314534,84.332323 73.3121988,85.8230062 73.1333168,86.4192795 C72.8749317,87.2341863 72.4774161,88.0093416 71.9805217,88.7049938 C70.9867329,89.9770435 69.1780373,91.2490932 67.5283478,91.8254907 L67.0513292,92.0043727 L67.071205,94.0913292 L67.0910807,96.1782857 L67.5283478,96.2180373 L67.9656149,96.2577888 L68.5618882,97.1521988 L69.1382857,98.0466087 L71.8016398,98.0466087 C73.2724472,98.0466087 74.5643727,98.0664845 74.6836273,98.0863602 C74.8823851,98.1261118 74.9221366,98.106236 75.1208944,97.7683478 L75.3594037,97.4105839 L77.645118,97.4105839 C79.4140621,97.4105839 79.9308323,97.4304596 79.9308323,97.490087 C79.871205,97.4702112 79.6128199,98.4441242 79.3146832,99.5571677 Z" id="Path_8579" fill="#FFFFFF" fillRule="nonzero"></path>
            <path d="M8.47741615,78.1310807 C7.22524224,78.3099627 6.48983851,78.5087205 6.48983851,78.5087205" id="Path_8580"></path>
            <path d="M120.795429,78.7074783 C120.795429,78.7074783 120.159404,78.5683478 119.026484,78.4490932" id="Path_8581"></path>
            <path d="M118.90723,76.8590311 C118.867478,75.9646211 118.787975,74.7124472 118.728348,74.0962981 C117.873689,65.0726957 115.568099,57.6987826 111.195429,49.8876025 C111.016547,49.5894658 110.85754,49.2913292 110.758161,49.0528199 C110.71841,48.9931925 110.698534,48.9335652 110.678658,48.8938137 L110.678658,48.8938137 C111.294807,47.0453665 113.819031,39.3136894 115.826484,30.4689689 C118.549466,18.464 120.278658,4.43170186 114.991702,0.218037267 C114.991702,0.218037267 105.848845,-0.45773913 93.6053665,11.5472298 C90.2861118,14.8664845 87.245118,18.464 84.5420124,22.3000248 L83.687354,22.021764 C78.7581615,20.4118261 73.650087,19.4180373 68.5022609,19.0801491 C66.9519503,18.9608944 61.1680994,18.9608944 59.2799006,19.0801491 C53.5755528,19.4577888 49.202882,20.3124472 44.2339379,22.0416398 C44.0351801,22.1211429 43.8562981,22.1807702 43.6774161,22.2403975 C40.8749317,18.4242484 37.7544348,14.8466087 34.3159255,11.5671056 C21.5755528,-0.497490683 12.0948075,0.198161491 12.0948075,0.198161491 C6.48983851,4.55095652 8.39791304,19.2192795 11.2997764,31.621764 C13.2078509,39.8304596 15.5531925,47.0453665 16.4277267,49.6490932 C16.3680994,49.7882236 16.2885963,49.9472298 16.2090932,50.0863602 C11.5780373,59.4677267 9.07368944,68.511205 8.47741615,78.1310807 C13.6649938,77.3758012 27.955677,76.5211429 38.6687205,88.0490932 C38.6687205,88.0490932 45.7444969,69.3658634 64.8252422,69.3658634 C83.9059876,69.3658634 87.9805217,88.0490932 87.9805217,88.0490932 C100.621516,77.6143106 114.236422,77.9521988 119.006609,78.4490932 C118.986733,78.0515776 118.946981,77.4553043 118.90723,76.8590311 Z M20.1842484,42.1559255 C20.1842484,42.1559255 12.7507081,23.5720745 14.6587826,12.9584099 C14.6587826,12.9584099 14.6587826,12.9584099 14.6587826,12.9584099 C14.976795,11.1695901 15.5730683,9.59940373 16.5072298,8.40685714 C16.5072298,8.40685714 24.934559,9.24163975 38.5295901,24.3472298 C38.5295901,24.3472298 35.9457391,25.5994037 32.487354,28.2627578 C32.487354,28.2627578 32.4674783,28.2826335 32.4476025,28.2826335 C28.6910807,31.1646211 23.8811429,35.7360497 20.1842484,42.1559255 L20.1842484,42.1559255 Z M51.7271056,69.7633789 C51.6078509,70.0018882 51.0115776,70.2602733 50.3358012,70.3596522 C49.6600248,70.4590311 47.5929441,70.3994037 46.4202733,70.2602733 C42.2066087,69.7037516 37.734559,68.4118261 34.4749317,66.821764 C32.6463602,65.927354 31.334559,65.0329441 30.360646,64.0590311 L29.8041242,63.4826335 L29.7444969,62.727354 C29.645118,61.4155528 29.6649938,59.348472 29.824,58.6130683 C29.9233789,57.9969193 30.1420124,57.400646 30.4401491,56.864 C30.5991553,56.6652422 30.5991553,56.6652422 31.3146832,56.6652422 C32.1892174,56.6652422 32.9246211,56.8043727 34.1171677,57.1820124 C36.5618882,57.9372919 40.1991553,59.7658634 44.6314534,62.4292174 C48.2885963,64.6155528 49.6600248,65.6888447 50.713441,67.1596522 C51.4289689,68.0739379 51.9059876,69.3658634 51.7271056,69.7633789 Z M98.5544348,63.1844969 C98.4948075,63.5025093 97.560646,64.4565466 96.6264845,65.1521988 C93.8836273,67.1596522 88.9743106,69.0279752 83.9854907,69.9223851 C81.1432547,70.4391553 78.3010186,70.5186584 77.4463602,70.1012671 C76.8898385,69.8230062 76.8103354,69.6043727 77.0090932,68.8888447 C77.4264845,67.3981615 78.7780373,65.7683478 80.8848696,64.237913 C81.9581615,63.4627578 86.3109565,60.8192795 88.3382857,59.706236 C91.6774161,57.8776646 94.3805217,56.7844969 96.2090932,56.5261118 C96.7854907,56.4466087 97.4811429,56.4267329 97.6997764,56.5261118 C98.0575404,56.6652422 98.4550559,57.7186584 98.6140621,58.9907081 C98.6935652,59.6664845 98.6538137,62.6478509 98.5544348,63.1844969 Z M95.2550559,28.2627578 L95.2153043,28.242882 C91.8761739,25.579528 89.3718261,24.327354 89.3718261,24.327354 C102.509714,9.22176398 110.638907,8.38698137 110.638907,8.38698137 C111.533317,9.59940373 112.109714,11.1497143 112.427727,12.9385342 C112.427727,12.9385342 112.427727,12.9385342 112.427727,12.9385342 C114.276174,23.5521988 107.101019,42.1559255 107.101019,42.1559255 C104.099776,36.8093416 100.064994,32.0789068 95.2550559,28.2627578 L95.2550559,28.2627578 Z" id="Path_8582" fill="#FFA409" fillRule="nonzero"></path>
            <path d="M84.5221366,22.3000248 C84.4823851,22.3397764 84.4625093,22.3994037 84.4227578,22.4391553" id="Path_8583"></path>
            <path d="M110.658783,48.8739379 C110.559404,49.1521988 110.519652,49.2913292 110.519652,49.2913292" id="Path_8584"></path>
            <g id="Group_934" transform="translate(89.371826, 8.347230)" fillRule="nonzero">
                <g id="Group_933">
                    <g id="Group_932" fill="#FF9300">
                        <path d="M23.0757764,4.59130435 C21.5254658,4.39254658 14.1913043,4.35279503 5.88322981,19.915528 L5.84347826,19.8956522 C2.50434783,17.2322981 -4.51922833e-14,15.9801242 -4.51922833e-14,15.9801242 C13.1378882,0.874534161 21.2670807,0.0397515528 21.2670807,0.0397515528 C22.1813665,1.25217391 22.757764,2.80248447 23.0757764,4.59130435 Z" id="Path_8585"></path>
                    </g>
                    <path d="M17.7490683,33.8086957 C14.7279503,28.442236 10.7130435,23.731677 5.88322981,19.915528 C14.1913043,4.35279503 21.5055901,4.39254658 23.0757764,4.59130435 C23.0757764,4.59130435 23.0757764,4.59130435 23.0757764,4.59130435 C24.9242236,15.2248447 17.7490683,33.8086957 17.7490683,33.8086957 Z" id="Path_8586" fill="#FF8300"></path>
                    <path d="M23.373913,4.65093168 C23.2745342,4.6310559 23.1751553,4.61118012 23.0757764,4.59130435 L23.373913,4.65093168 Z" id="Path_8587" fill="#FF8300"></path>
                </g>
            </g>
            <path d="M44.2736894,23.0751801 C44.0749317,22.7969193 43.8562981,22.5186584 43.6575404,22.2403975" id="Path_8588"></path>
            <path d="M16.4277267,49.6490932 C16.6463602,50.3248696 16.7854907,50.6826335 16.7854907,50.6826335" id="Path_8589"></path>
            <g id="Group_937" transform="translate(14.241391, 8.347230)" fillRule="nonzero">
                <g id="Group_936">
                    <g id="Group_935" transform="translate(0.397516, 0.000000)" fill="#FF9300">
                        <path d="M23.8906832,15.9801242 C23.8906832,15.9801242 21.3068323,17.2322981 17.8484472,19.8956522 C17.8484472,19.8956522 17.8285714,19.915528 17.8086957,19.915528 C9.20248447,4.33291925 1.62981366,4.39254658 0,4.59130435 C0.318012422,2.80248447 0.914285714,1.23229814 1.8484472,0.0397515528 C1.86832298,0.0397515528 10.2956522,0.874534161 23.8906832,15.9801242 Z" id="Path_8590"></path>
                    </g>
                    <path d="M18.226087,19.915528 C14.4496894,22.8173913 9.63975155,27.3689441 5.94285714,33.8086957 C5.94285714,33.8086957 -1.49068323,15.2248447 0.417391304,4.59130435 C0.417391304,4.59130435 0.417391304,4.59130435 0.417391304,4.59130435 C2.02732919,4.39254658 9.61987578,4.35279503 18.226087,19.915528 Z" id="Path_8591" fill="#FF8300"></path>
                    <path d="M0.417391304,4.59130435 C0.318012422,4.61118012 0.198757764,4.6310559 0.099378882,4.65093168 L0.417391304,4.59130435 Z" id="Path_8592" fill="#FF8300"></path>
                </g>
            </g>
            <path d="M87.0066087,52.4714534 C87.0066087,52.4714534 80.6463602,52.8689689 81.4413913,47.9000248 C82.2364224,42.9310807 87.2053665,42.3348075 88.5966708,42.5335652 C89.9879752,42.732323 95.5531925,44.7199006 94.5594037,48.8938137 C93.5656149,53.0677267 92.1743106,52.2726957 91.3792795,52.4714534 C90.5842484,52.6702112 87.0066087,52.4714534 87.0066087,52.4714534 Z" id="Path_8593" fill="#FFFFFF" fillRule="nonzero"></path>
            <path d="M40.0997764,52.4714534 C40.0997764,52.4714534 33.739528,52.8689689 34.534559,47.9000248 C35.3295901,42.9310807 40.2985342,42.3348075 41.6898385,42.5335652 C43.0811429,42.732323 48.6463602,44.7199006 47.6525714,48.8938137 C46.6587826,53.0677267 45.2674783,52.2726957 44.4724472,52.4714534 C43.6774161,52.6702112 40.0997764,52.4714534 40.0997764,52.4714534 Z" id="Path_8594" fill="#FFFFFF" fillRule="nonzero"></path>
        </g>
    </g>
</svg>