<?xml version="1.0" encoding="UTF-8"?>
<svg width="102px" height="102px" viewBox="0 0 102 102" version="1.1" xmlns="http://www.w3.org/2000/svg" xmlns:xlink="http://www.w3.org/1999/xlink">
    <title>xusd-logo-ellipse-transparent-260x260-v6</title>
    <g id="Page-1" stroke="none" stroke-width="1" fill="none" fill-rule="evenodd">
        <g id="xusd-logo-ellipse-transparent-260x260-v6" fill="#43B446">
            <path d="M51.0015309,0.0452071893 C22.859411,0.0452071893 0.0452071893,22.858643 0.0452071893,51.0007629 C0.0452071893,64.5152268 5.41377541,77.4761798 14.9699446,87.0323487 C24.5261139,96.5885177 37.487067,101.957085 51.0015309,101.957085 C79.1436502,101.957085 101.957087,79.1428822 101.957087,51.0007629 C101.957087,22.8589429 79.1433509,0.0452071893 51.0015309,0.0452071893 L51.0015309,0.0452071893 Z M51.0015309,5.00268874 C76.40547,5.00268874 96.9996125,25.5968238 96.9996125,51.0007629 C96.9996125,76.4050024 76.4057705,96.9996065 51.0015309,96.9996065 C38.8018518,96.9996065 27.1018143,92.1534316 18.4753386,83.5269556 C9.84886291,74.9004797 5.00268874,63.200442 5.00268874,51.0007629 C5.00268874,25.5965268 25.5972948,5.00268874 51.0015309,5.00268874 L51.0015309,5.00268874 Z" id="circle822" fill-rule="nonzero"></path>
            <g id="g4886" transform="translate(14.030302, 17.985500)" fill-rule="nonzero">
                <path d="M32.9512819,0 C28.6162802,0 24.3227206,0.85407077 20.3160608,2.51317399 C16.3138382,4.17223284 12.6663136,6.60582827 9.60474633,9.67139329 C6.53874204,12.7369494 4.10599409,16.3773437 2.4465359,20.3827167 C1.34432733,23.0429657 0.632002682,25.8340368 0.254010054,28.6761962 L8.95476229,28.6761962 C9.83427513,23.8187757 12.1593802,19.2938104 15.6970433,15.7550069 C20.2716459,11.1789401 26.4776202,8.6141232 32.9512819,8.6141232 L37.4489904,8.59681869 L37.413494,0 L32.9512819,0 Z M0.254010054,37.3509828 C0.632047052,40.1930844 1.34432733,42.9842132 2.4465359,45.6444578 C4.10599409,49.6497864 6.53874204,53.2902251 9.60474633,56.3557856 C12.6663136,59.4213462 16.3138382,61.854986 20.3160608,63.5140005 C24.3227206,65.173015 28.6162802,66.0271745 32.9512819,66.0271745 L37.4229893,66.00987 L37.4229893,57.4130779 L32.9512819,57.4130779 C26.4776202,57.4130779 20.2716016,54.8394624 15.6970433,50.2635286 C12.1593802,46.7248627 9.83427513,42.2084698 8.95476229,37.3509828 L0.254010054,37.3509828 Z" id="path4882"></path>
                <path d="M37.2410257,0 L37.2232775,8.59679207 L40.975694,8.61409658 C47.4493558,8.61409658 53.6553301,11.1789134 58.2299327,15.7549803 C61.7678177,19.2940278 64.092834,23.8183631 64.9721693,28.6761695 L73.6643137,28.6761695 C73.2862767,25.8340102 72.573952,23.0429391 71.4717878,20.38269 C69.8123296,16.3773171 67.388234,12.7369228 64.3222297,9.67136667 C61.2606624,6.60580165 57.6131378,4.17220622 53.6109152,2.51314737 C49.6046548,0.85407077 45.3110951,0 40.9760934,0 L37.2410257,0 Z M64.9725687,37.3509828 C64.0932333,42.2088292 61.768217,46.7245921 58.230332,50.263502 C53.6557294,54.8394358 47.4497551,57.4130513 40.9760934,57.4130513 L37.3363336,57.3957468 L37.3718301,66.00987 L40.9769364,66.0271745 C45.3119381,66.0271745 49.6054978,65.173015 53.6121575,63.5140005 C57.6143802,61.854986 61.2619048,59.4213462 64.323472,56.3557856 C67.3894763,53.2902251 69.813572,49.6497864 71.4730302,45.6444578 C72.5751944,42.9842132 73.2875191,40.1930844 73.6655561,37.3509828 L64.9725687,37.3509828 Z" id="path4884" opacity="0.61000001"></path>
            </g>
            <polygon id="path2" points="46.3820617 50.7203609 32.5234167 36.8619027 41.7622959 36.8619027 51.0011454 46.1008204 60.2400098 36.8619027 69.478889 36.8619027 55.620244 50.7203609 55.3444548 51.0010891 55.620244 51.2819048 69.478889 65.1403392 60.2400098 65.1403392 51.0011454 55.9013948 41.7622959 65.1403392 32.5234167 65.1403392 46.3820617 51.2819048 46.6614836 51.0010891"></polygon>
        </g>
    </g>
</svg>